<svg xmlns="http://www.w3.org/2000/svg" version="1.1" xmlns:xlink="http://www.w3.org/1999/xlink" xmlns:svgjs="http://svgjs.dev/svgjs" width="350" height="691" preserveAspectRatio="none" viewBox="0 0 350 691"><g mask="url(&quot;#SvgjsMask2292&quot;)" fill="none"><rect width="350" height="691" x="0" y="0" fill="rgba(112, 235, 230, 1)"></rect><path d="M350 0L267.46 0L350 79.25z" fill="rgba(255, 255, 255, .1)"></path><path d="M267.46 0L350 79.25L350 403.32L248.95999999999998 0z" fill="rgba(255, 255, 255, .075)"></path><path d="M248.95999999999998 0L350 403.32L350 419.46999999999997L147.08999999999997 0z" fill="rgba(255, 255, 255, .05)"></path><path d="M147.08999999999997 0L350 419.46999999999997L350 569.65L125.08999999999997 0z" fill="rgba(255, 255, 255, .025)"></path><path d="M0 691L106.27 691L0 626.08z" fill="rgba(0, 0, 0, .1)"></path><path d="M0 626.08L106.27 691L221 691L0 376.44000000000005z" fill="rgba(0, 0, 0, .075)"></path><path d="M0 376.44L221 691L275.08 691L0 362.35z" fill="rgba(0, 0, 0, .05)"></path><path d="M0 362.35L275.08 691L309.81 691L0 242.83000000000004z" fill="rgba(0, 0, 0, .025)"></path></g><defs><mask id="SvgjsMask2292"><rect width="350" height="691" fill="#ffffff"></rect></mask></defs></svg>