<svg xmlns="http://www.w3.org/2000/svg" version="1.1" xmlns:xlink="http://www.w3.org/1999/xlink" xmlns:svgjs="http://svgjs.dev/svgjs" width="350" height="691" preserveAspectRatio="none" viewBox="0 0 350 691"><g mask="url(&quot;#SvgjsMask1015&quot;)" fill="none"><rect width="350" height="691" x="0" y="0" fill="rgba(8, 119, 212, 1)"></rect><path d="M350 0L295.44 0L350 204.52z" fill="rgba(255, 255, 255, .1)"></path><path d="M295.44 0L350 204.52L350 261.15000000000003L205.16 0z" fill="rgba(255, 255, 255, .075)"></path><path d="M205.16 0L350 261.15000000000003L350 301.24L159.93 0z" fill="rgba(255, 255, 255, .05)"></path><path d="M159.93 0L350 301.24L350 472.4L148.17000000000002 0z" fill="rgba(255, 255, 255, .025)"></path><path d="M0 691L53.88 691L0 442.33000000000004z" fill="rgba(0, 0, 0, .1)"></path><path d="M0 442.33000000000004L53.88 691L140.44 691L0 273.21000000000004z" fill="rgba(0, 0, 0, .075)"></path><path d="M0 273.21000000000004L140.44 691L244.23000000000002 691L0 124.45000000000005z" fill="rgba(0, 0, 0, .05)"></path><path d="M0 124.45000000000005L244.23000000000002 691L319.27000000000004 691L0 79.26000000000005z" fill="rgba(0, 0, 0, .025)"></path></g><defs><mask id="SvgjsMask1015"><rect width="350" height="691" fill="#ffffff"></rect></mask></defs></svg>